<svg width="53" height="54" viewBox="0 0 53 54" fill="none" xmlns="http://www.w3.org/2000/svg">
<g clip-path="url(#clip0_43_85)">
<path d="M11.0002 16.5877C11.8778 9.27916 18.5535 3.75 26.5 3.75C34.4465 3.75 41.1222 9.27916 41.9999 16.5877L42.7028 22.442C42.7118 22.5166 42.7162 22.5541 42.7207 22.591C43.0808 25.4937 44.1017 28.293 45.7167 30.804C45.7371 30.836 45.758 30.868 45.7996 30.9324L47.4135 33.4211C48.8777 35.6797 49.61 36.8089 49.452 37.7361C49.3467 38.3527 49.0036 38.9136 48.4863 39.3142C47.7086 39.9167 46.2854 39.9167 43.4393 39.9167H9.56081C6.71456 39.9167 5.29146 39.9167 4.51378 39.3142C3.99629 38.9136 3.65325 38.3527 3.54806 37.7361C3.39 36.8089 4.12219 35.6797 5.58656 33.4211L7.20023 30.9324C7.24199 30.868 7.26288 30.836 7.28339 30.804C8.89821 28.293 9.91929 25.4937 10.2793 22.591C10.2839 22.5541 10.2883 22.5166 10.2973 22.442L11.0002 16.5877Z" stroke="#DDF2D7" stroke-width="6"/>
<path d="M15.3333 39.9167C15.3333 41.2737 15.6222 42.6173 16.1833 43.871C16.7445 45.1247 17.5671 46.2639 18.604 47.2234C19.6409 48.1831 20.8719 48.9441 22.2268 49.4634C23.5816 49.9826 25.0335 50.25 26.5 50.25C27.9665 50.25 29.4184 49.9826 30.7732 49.4634C32.128 48.9441 33.3591 48.1831 34.3959 47.2234C35.433 46.2639 36.2555 45.1247 36.8166 43.871C37.3777 42.6173 37.6667 41.2737 37.6667 39.9167" stroke="#DDF2D7" stroke-width="6" stroke-linecap="round"/>
</g>
<defs>
<clipPath id="clip0_43_85">
<rect width="53" height="54" fill="white"/>
</clipPath>
</defs>
</svg>
