<svg width="192" height="177" viewBox="0 0 192 177" fill="none" xmlns="http://www.w3.org/2000/svg">
<path fill-rule="evenodd" clip-rule="evenodd" d="M56 32.6893C56 31.5417 56 30.9678 55.5928 30.6374C55.1855 30.3071 54.5795 30.3787 53.3675 30.522C44.3972 31.5819 38.1445 33.7412 33.3726 38.1403C24 46.7807 24 60.6871 24 88.5C24 116.313 24 130.22 33.3726 138.859C42.7452 147.5 57.8301 147.5 88 147.5H104C134.17 147.5 149.255 147.5 158.627 138.859C168 130.22 168 116.313 168 88.5C168 60.6871 168 46.7807 158.627 38.1403C153.855 33.7412 147.603 31.5819 138.633 30.522C137.421 30.3787 136.814 30.3071 136.407 30.6375C136 30.9678 136 31.5417 136 32.6893V47.9375C136 54.0472 130.627 59 124 59C117.373 59 112 54.0472 112 47.9375V31.7129C112 30.6725 112 30.1522 111.649 29.8283C111.298 29.5044 110.734 29.5037 109.607 29.5023C107.798 29.5 105.93 29.5 104 29.5H88C86.0704 29.5 84.2016 29.5 82.3928 29.5023C81.2656 29.5037 80.7016 29.5044 80.3512 29.8283C80 30.1522 80 30.6725 80 31.7129V47.9375C80 54.0472 74.6274 59 68.0001 59C61.3726 59 56 54.0472 56 47.9375V32.6893Z" fill="#7E869E" fill-opacity="0.25"/>
<path d="M68 18.4375V47.9375" stroke="#222222" stroke-linecap="round"/>
<path d="M124 18.4375V47.9375" stroke="#222222" stroke-linecap="round"/>
<path d="M60 81.125C62.2091 81.125 64 79.4741 64 77.4375C64 75.4009 62.2091 73.75 60 73.75C57.7909 73.75 56 75.4009 56 77.4375C56 79.4741 57.7909 81.125 60 81.125Z" fill="#222222"/>
<path d="M84 81.125C86.2091 81.125 88 79.4741 88 77.4375C88 75.4009 86.2091 73.75 84 73.75C81.7909 73.75 80 75.4009 80 77.4375C80 79.4741 81.7909 81.125 84 81.125Z" fill="#222222"/>
<path d="M108 81.125C110.209 81.125 112 79.4741 112 77.4375C112 75.4009 110.209 73.75 108 73.75C105.791 73.75 104 75.4009 104 77.4375C104 79.4741 105.791 81.125 108 81.125Z" fill="#222222"/>
<path d="M132 81.125C134.209 81.125 136 79.4741 136 77.4375C136 75.4009 134.209 73.75 132 73.75C129.791 73.75 128 75.4009 128 77.4375C128 79.4741 129.791 81.125 132 81.125Z" fill="#222222"/>
<path d="M60 103.25C62.2091 103.25 64 101.599 64 99.5625C64 97.5259 62.2091 95.875 60 95.875C57.7909 95.875 56 97.5259 56 99.5625C56 101.599 57.7909 103.25 60 103.25Z" fill="#222222"/>
<path d="M84 103.25C86.2091 103.25 88 101.599 88 99.5625C88 97.5259 86.2091 95.875 84 95.875C81.7909 95.875 80 97.5259 80 99.5625C80 101.599 81.7909 103.25 84 103.25Z" fill="#222222"/>
<path d="M108 103.25C110.209 103.25 112 101.599 112 99.5625C112 97.5259 110.209 95.875 108 95.875C105.791 95.875 104 97.5259 104 99.5625C104 101.599 105.791 103.25 108 103.25Z" fill="#222222"/>
<path d="M132 103.25C134.209 103.25 136 101.599 136 99.5625C136 97.5259 134.209 95.875 132 95.875C129.791 95.875 128 97.5259 128 99.5625C128 101.599 129.791 103.25 132 103.25Z" fill="#222222"/>
<path d="M60 125.375C62.2091 125.375 64 123.724 64 121.688C64 119.651 62.2091 118 60 118C57.7909 118 56 119.651 56 121.688C56 123.724 57.7909 125.375 60 125.375Z" fill="#222222"/>
<path d="M84 125.375C86.2091 125.375 88 123.724 88 121.688C88 119.651 86.2091 118 84 118C81.7909 118 80 119.651 80 121.688C80 123.724 81.7909 125.375 84 125.375Z" fill="#222222"/>
<path d="M108 125.375C110.209 125.375 112 123.724 112 121.688C112 119.651 110.209 118 108 118C105.791 118 104 119.651 104 121.688C104 123.724 105.791 125.375 108 125.375Z" fill="#222222"/>
<path d="M132 125.375C134.209 125.375 136 123.724 136 121.688C136 119.651 134.209 118 132 118C129.791 118 128 119.651 128 121.688C128 123.724 129.791 125.375 132 125.375Z" fill="#222222"/>
</svg>
