<svg width="191" height="156" viewBox="0 0 191 156" fill="none" xmlns="http://www.w3.org/2000/svg">
<path fill-rule="evenodd" clip-rule="evenodd" d="M153.802 37.5552C159.167 44.113 159.167 53.242 159.167 71.5C159.167 89.7579 159.167 98.8871 153.802 105.445C151.479 108.284 148.495 110.721 145.019 112.618C138.005 116.446 128.588 116.93 111.417 116.991V117L102.618 131.372C99.6853 136.163 91.3147 136.163 88.3821 131.372L79.5833 117V116.991C62.4116 116.93 52.9951 116.446 45.981 112.618C42.5051 110.721 39.5208 108.284 37.1982 105.445C31.8333 98.8871 31.8333 89.7579 31.8333 71.5C31.8333 53.242 31.8333 44.113 37.1982 37.5552C39.5208 34.7162 42.5051 32.2787 45.981 30.3818C54.0101 26 65.1874 26 87.5417 26H103.458C125.812 26 136.99 26 145.019 30.3818C148.495 32.2787 151.479 34.7162 153.802 37.5552Z" fill="black"/>
<path d="M67.6458 61.75H123.354" stroke="#DDF2D7" stroke-width="10" stroke-linecap="round" stroke-linejoin="round"/>
<path d="M67.6458 81.25H107.437" stroke="#DDF2D7" stroke-width="10" stroke-linecap="round" stroke-linejoin="round"/>
</svg>
