<svg width="135" height="135" viewBox="0 0 135 135" fill="none" xmlns="http://www.w3.org/2000/svg">
<path d="M24.6094 118.125L16.7344 110.25L74.3906 52.5938C72.7031 48.6562 72.4688 44.2031 73.6875 39.2344C74.9062 34.2656 77.5781 29.8125 81.7031 25.875C86.6719 20.9062 92.2031 18 98.2969 17.1562C104.391 16.3125 109.359 17.8125 113.203 21.6562C117.047 25.5 118.547 30.4688 117.703 36.5625C116.859 42.6562 113.953 48.1875 108.984 53.1562C105.047 57.2812 100.594 59.9531 95.625 61.1719C90.6562 62.3906 86.2031 62.1562 82.2656 60.4688L75.2344 67.5L117.984 110.25L110.109 118.125L67.3594 75.6562L24.6094 118.125ZM41.2031 70.0312L24.3281 53.1562C19.2656 48.0938 16.7344 42.0469 16.7344 35.0156C16.7344 27.9844 19.2656 21.9375 24.3281 16.875L59.2031 52.0312L41.2031 70.0312Z" fill="black"/>
</svg>
