<svg width="50" height="51" viewBox="0 0 50 51" fill="none" xmlns="http://www.w3.org/2000/svg">
<g clip-path="url(#clip0_41_82)">
<path d="M3.26257 24.7146C3.26257 20.9586 3.26257 19.0804 4.11487 17.4293C4.96716 15.7785 6.56781 14.5563 9.76905 12.1117L12.8744 9.74045C18.6606 5.32197 21.5537 3.11272 25 3.11272C28.4463 3.11272 31.3392 5.32197 37.1254 9.74045L40.2308 12.1117C43.4321 14.5563 45.0329 15.7785 45.885 17.4293C46.7374 19.0804 46.7374 20.9586 46.7374 24.7146V36.4458C46.7374 41.6623 46.7374 44.2706 44.9183 45.8912C43.0992 47.5118 40.1715 47.5118 34.316 47.5118H15.684C9.82845 47.5118 6.9007 47.5118 5.08165 45.8912C3.26257 44.2706 3.26257 41.6623 3.26257 36.4458V24.7146Z" stroke="#DDF2D7" stroke-width="6"/>
<path d="M32.7634 47.5118V33.6792C32.7634 32.1513 31.3732 30.9127 29.6581 30.9127H20.342C18.627 30.9127 17.2367 32.1513 17.2367 33.6792V47.5118" stroke="#DDF2D7" stroke-width="6" stroke-linecap="round" stroke-linejoin="round"/>
</g>
<defs>
<clipPath id="clip0_41_82">
<rect width="50" height="51" fill="white"/>
</clipPath>
</defs>
</svg>
