<svg width="148" height="126" viewBox="0 0 148 126" fill="none" xmlns="http://www.w3.org/2000/svg">
<path d="M73.8812 105C69.0001 101.675 63.7123 99.0937 58.0177 97.2562C52.3231 95.4187 46.4251 94.5 40.3237 94.5C36.0528 94.5 31.8581 94.9812 27.7397 95.9437C23.6213 96.9062 19.6808 98.2625 15.9183 100.012C13.7829 100.975 11.7236 100.931 9.74071 99.8812C7.75777 98.8312 6.7663 97.3 6.7663 95.2875V32.025C6.7663 31.0625 7.04594 30.1437 7.60523 29.2687C8.16452 28.3937 9.00346 27.7375 10.122 27.3C14.7997 25.2 19.6808 23.625 24.7653 22.575C29.8497 21.525 35.0359 21 40.3237 21C46.2217 21 51.9926 21.6562 57.6363 22.9688C63.2801 24.2812 68.695 26.25 73.8812 28.875V92.4C79.0673 89.6 84.5077 87.5 90.2023 86.1C95.8969 84.7 101.642 84 107.439 84C111.099 84 114.684 84.2625 118.192 84.7875C121.701 85.3125 125.234 86.1 128.793 87.15V24.15C130.319 24.5875 131.819 25.0469 133.293 25.5281C134.768 26.0094 136.217 26.6 137.64 27.3C138.759 27.7375 139.598 28.3937 140.157 29.2687C140.716 30.1437 140.996 31.0625 140.996 32.025V95.2875C140.996 97.3 140.005 98.8312 138.022 99.8812C136.039 100.931 133.979 100.975 131.844 100.012C128.082 98.2625 124.141 96.9062 120.023 95.9437C115.904 94.9812 111.71 94.5 107.439 94.5C101.337 94.5 95.4393 95.4187 89.7447 97.2562C84.0501 99.0937 78.7623 101.675 73.8812 105ZM86.0839 78.75V28.875L116.591 2.625V55.125L86.0839 78.75ZM61.6785 87.2812V35.3062C58.3227 34.0812 54.8399 33.1406 51.2299 32.4844C47.6199 31.8281 43.9845 31.5 40.3237 31.5C36.5612 31.5 32.9004 31.8062 29.3413 32.4187C25.7822 33.0312 22.3247 33.95 18.969 35.175V87.2812C22.5281 86.1437 26.0618 85.3125 29.5701 84.7875C33.0784 84.2625 36.6629 84 40.3237 84C43.9845 84 47.5691 84.2625 51.0774 84.7875C54.5856 85.3125 58.1193 86.1437 61.6785 87.2812Z" fill="black"/>
</svg>
