<svg width="77" height="82" viewBox="0 0 77 82" fill="none" xmlns="http://www.w3.org/2000/svg">
<path d="M35.3626 68.5152C40.3213 65.2906 38.4348 54.8486 31.149 45.1923C23.8633 35.536 13.9372 30.3221 8.97849 33.5467C4.01981 36.7714 5.90628 47.2134 13.1921 56.8697C20.4778 66.5259 30.4039 71.7398 35.3626 68.5152Z" fill="#B7E2AF"/>
<path d="M66.8213 34.5154C72.4428 20.7186 70.9224 7.39983 63.4253 4.76706C55.9282 2.13428 45.2935 11.1845 39.672 24.9813C34.0504 38.7781 35.5709 52.0969 43.068 54.7297C50.565 57.3624 61.1998 48.3122 66.8213 34.5154Z" fill="#B7E2AF"/>
<path d="M59.317 71.8763C66.0364 66.2851 69.0211 59.2021 65.9836 56.056C62.9461 52.9098 55.0367 54.8919 48.3174 60.4831C41.5981 66.0742 38.6134 73.1572 41.6508 76.3034C44.6883 79.4495 52.5977 77.4675 59.317 71.8763Z" fill="#B7E2AF"/>
</svg>
