<svg width="167" height="155" viewBox="0 0 167 155" fill="none" xmlns="http://www.w3.org/2000/svg">
<g clip-path="url(#clip0_24_35)">
<path d="M0.955566 116.25V106.078C0.955566 101.45 3.47776 97.6823 8.52214 94.776C13.5665 91.8698 20.2159 90.4167 28.4704 90.4167C29.9607 90.4167 31.3938 90.4436 32.7696 90.4974C34.1453 90.5512 35.4637 90.6858 36.7248 90.901C35.1198 93.1615 33.916 95.5295 33.1135 98.0052C32.311 100.481 31.9097 103.064 31.9097 105.755V116.25H0.955566ZM42.2278 116.25V105.755C42.2278 102.311 43.2309 99.1623 45.2372 96.3099C47.2435 93.4575 50.0809 90.9549 53.7496 88.8021C57.4182 86.6493 61.8034 85.0347 66.9051 83.9583C72.0068 82.8819 77.5384 82.3438 83.5 82.3438C89.5761 82.3438 95.1651 82.8819 100.267 83.9583C105.368 85.0347 109.754 86.6493 113.422 88.8021C117.091 90.9549 119.9 93.4575 121.849 96.3099C123.798 99.1623 124.772 102.311 124.772 105.755V116.25H42.2278ZM135.09 116.25V105.755C135.09 102.957 134.718 100.319 133.972 97.8438C133.227 95.3681 132.109 93.0538 130.619 90.901C131.88 90.6858 133.17 90.5512 134.488 90.4974C135.807 90.4436 137.154 90.4167 138.53 90.4167C146.784 90.4167 153.433 91.8429 158.478 94.6953C163.522 97.5477 166.044 101.342 166.044 106.078V116.25H135.09ZM56.845 103.333H110.327C109.18 101.181 105.999 99.2969 100.783 97.6823C95.5663 96.0677 89.8054 95.2604 83.5 95.2604C77.1945 95.2604 71.4336 96.0677 66.2172 97.6823C61.0009 99.2969 57.8768 101.181 56.845 103.333ZM28.4704 83.9583C24.6871 83.9583 21.4484 82.6936 18.7542 80.1641C16.06 77.6345 14.713 74.5938 14.713 71.0417C14.713 67.3819 16.06 64.3142 18.7542 61.8385C21.4484 59.3628 24.6871 58.125 28.4704 58.125C32.3683 58.125 35.6357 59.3628 38.2725 61.8385C40.9093 64.3142 42.2278 67.3819 42.2278 71.0417C42.2278 74.5938 40.9093 77.6345 38.2725 80.1641C35.6357 82.6936 32.3683 83.9583 28.4704 83.9583ZM138.53 83.9583C134.746 83.9583 131.508 82.6936 128.813 80.1641C126.119 77.6345 124.772 74.5938 124.772 71.0417C124.772 67.3819 126.119 64.3142 128.813 61.8385C131.508 59.3628 134.746 58.125 138.53 58.125C142.427 58.125 145.695 59.3628 148.332 61.8385C150.969 64.3142 152.287 67.3819 152.287 71.0417C152.287 74.5938 150.969 77.6345 148.332 80.1641C145.695 82.6936 142.427 83.9583 138.53 83.9583ZM83.5 77.5C77.7677 77.5 72.8953 75.6163 68.8827 71.849C64.8701 68.0816 62.8639 63.5069 62.8639 58.125C62.8639 52.6354 64.8701 48.0339 68.8827 44.3203C72.8953 40.6068 77.7677 38.75 83.5 38.75C89.3468 38.75 94.2479 40.6068 98.2032 44.3203C102.158 48.0339 104.136 52.6354 104.136 58.125C104.136 63.5069 102.158 68.0816 98.2032 71.849C94.2479 75.6163 89.3468 77.5 83.5 77.5ZM83.5 64.5833C85.4489 64.5833 87.0826 63.9644 88.401 62.7266C89.7194 61.4887 90.3787 59.9549 90.3787 58.125C90.3787 56.2951 89.7194 54.7613 88.401 53.5234C87.0826 52.2856 85.4489 51.6667 83.5 51.6667C81.551 51.6667 79.9173 52.2856 78.5989 53.5234C77.2805 54.7613 76.6213 56.2951 76.6213 58.125C76.6213 59.9549 77.2805 61.4887 78.5989 62.7266C79.9173 63.9644 81.551 64.5833 83.5 64.5833Z" fill="black"/>
</g>
<defs>
<clipPath id="clip0_24_35">
<rect width="165.089" height="155" fill="white" transform="translate(0.955566)"/>
</clipPath>
</defs>
</svg>
