<svg width="51" height="48" viewBox="0 0 51 48" fill="none" xmlns="http://www.w3.org/2000/svg">
<g clip-path="url(#clip0_19_15)">
<path d="M25.5 24C22.0625 24 19.1198 22.825 16.6719 20.475C14.224 18.125 13 15.3 13 12C13 8.7 14.224 5.875 16.6719 3.525C19.1198 1.175 22.0625 0 25.5 0C28.9375 0 31.8802 1.175 34.3281 3.525C36.776 5.875 38 8.7 38 12C38 15.3 36.776 18.125 34.3281 20.475C31.8802 22.825 28.9375 24 25.5 24ZM0.5 48V39.6C0.5 37.9 0.955729 36.3375 1.86719 34.9125C2.77865 33.4875 3.98958 32.4 5.5 31.65C8.72917 30.1 12.0104 28.9375 15.3438 28.1625C18.6771 27.3875 22.0625 27 25.5 27C28.9375 27 32.3229 27.3875 35.6563 28.1625C38.9896 28.9375 42.2708 30.1 45.5 31.65C47.0104 32.4 48.2214 33.4875 49.1328 34.9125C50.0443 36.3375 50.5 37.9 50.5 39.6V48H0.5ZM6.75 42H44.25V39.6C44.25 39.05 44.1068 38.55 43.8203 38.1C43.5339 37.65 43.1563 37.3 42.6875 37.05C39.875 35.7 37.0365 34.6875 34.1719 34.0125C31.3073 33.3375 28.4167 33 25.5 33C22.5833 33 19.6927 33.3375 16.8281 34.0125C13.9635 34.6875 11.125 35.7 8.3125 37.05C7.84375 37.3 7.46615 37.65 7.17969 38.1C6.89323 38.55 6.75 39.05 6.75 39.6V42ZM25.5 18C27.2188 18 28.6901 17.4125 29.9141 16.2375C31.138 15.0625 31.75 13.65 31.75 12C31.75 10.35 31.138 8.9375 29.9141 7.7625C28.6901 6.5875 27.2188 6 25.5 6C23.7813 6 22.3099 6.5875 21.0859 7.7625C19.862 8.9375 19.25 10.35 19.25 12C19.25 13.65 19.862 15.0625 21.0859 16.2375C22.3099 17.4125 23.7813 18 25.5 18Z" fill="#DDF2D7"/>
</g>
<defs>
<clipPath id="clip0_19_15">
<rect width="51" height="48" fill="white"/>
</clipPath>
</defs>
</svg>
