<svg width="144" height="157" viewBox="0 0 144 157" fill="none" xmlns="http://www.w3.org/2000/svg">
<path d="M30 143.917C26.7 143.917 23.875 142.635 21.525 140.073C19.175 137.511 18 134.431 18 130.833V101.069L34.5 80.626L43.05 89.9478L31.05 104.667H112.95L101.25 90.2749L109.8 80.953L126 101.069V130.833C126 134.431 124.825 137.511 122.475 140.073C120.125 142.635 117.3 143.917 114 143.917H30ZM30 130.833H114V117.75H30V130.833ZM63.75 94.0364L42.6 70.977C40.3 68.4694 39.175 65.3893 39.225 61.7369C39.275 58.0845 40.45 55.0045 42.75 52.4968L72.15 20.4427C74.45 17.935 77.3 16.6267 80.7 16.5177C84.1 16.4087 86.95 17.608 89.25 20.1156L110.4 43.1749C112.7 45.6826 113.9 48.7354 114 52.3333C114.1 55.9312 113 58.984 110.7 61.4916L80.7 94.1999C78.4 96.7075 75.575 97.9341 72.225 97.8796C68.875 97.8251 66.05 96.544 63.75 94.0364ZM102 52.4968L80.85 29.4375L51.15 61.8187L72.3 84.878L102 52.4968Z" fill="black"/>
</svg>
