<svg width="47" height="45" viewBox="0 0 47 45" fill="none" xmlns="http://www.w3.org/2000/svg">
<path d="M41.125 22.5C41.125 18.9741 39.9715 15.5367 37.8264 12.6707C35.6814 9.80466 32.6525 7.65392 29.1655 6.52056C25.6783 5.38718 21.9079 5.32811 18.3837 6.35164C14.8597 7.37515 11.759 9.42985 9.51715 12.2272C7.27531 15.0245 6.00494 18.4238 5.88444 21.9478C5.76394 25.4719 6.79939 28.9436 8.84534 31.8752C10.8913 34.8069 13.845 37.0515 17.2916 38.2935C20.7382 39.5355 24.5046 39.7125 28.0617 38.7999" stroke="#33363F" stroke-width="3" stroke-linecap="round"/>
<path d="M23.5001 30C27.8263 30 31.3334 26.6421 31.3334 22.5C31.3334 18.3579 27.8263 15 23.5001 15C19.1739 15 15.6667 18.3579 15.6667 22.5C15.6667 26.6421 19.1739 30 23.5001 30Z" stroke="#33363F" stroke-width="3"/>
<path d="M31.3333 16.875V25.3125C31.3333 27.9013 33.5252 30 36.2291 30C38.933 30 41.1249 27.9013 41.1249 25.3125V22.5" stroke="#33363F" stroke-width="3" stroke-linecap="round"/>
</svg>
