<svg xmlns="http://www.w3.org/2000/svg" style="display: none;">
  <!-- Notes Icon -->
  <symbol id="icon-notes" viewBox="0 0 167 155">
    <g clip-path="url(#clip0_24_35_notes)">
      <path d="M0.955566 116.25V106.078C0.955566 101.45 3.47776 97.6823 8.52214 94.776C13.5665 91.8698 20.2159 90.4167 28.4704 90.4167C29.9607 90.4167 31.3938 90.4436 32.7696 90.4974C34.1453 90.5512 35.4637 90.6858 36.7248 90.901C35.1198 93.1615 33.916 95.5295 33.1135 98.0052C32.311 100.481 31.9097 103.064 31.9097 105.755V116.25H0.955566ZM42.2278 116.25V105.755C42.2278 102.311 43.2309 99.1623 45.2372 96.3099C47.2435 93.4575 50.0809 90.9549 53.7496 88.8021C57.4182 86.6493 61.8034 85.0347 66.9051 83.9583C72.0068 82.8819 77.5384 82.3438 83.5 82.3438C89.5761 82.3438 95.1651 82.8819 100.267 83.9583C105.368 85.0347 109.754 86.6493 113.422 88.8021C117.091 90.9549 119.9 93.4575 121.849 96.3099C123.798 99.1623 124.772 102.311 124.772 105.755V116.25H42.2278ZM135.09 116.25V105.755C135.09 102.957 134.718 100.319 133.972 97.8438C133.227 95.3681 132.109 93.0538 130.619 90.901C131.88 90.6858 133.17 90.5512 134.488 90.4974C135.807 90.4436 137.154 90.4167 138.53 90.4167C146.784 90.4167 153.433 91.8429 158.478 94.6953C163.522 97.5477 166.044 101.342 166.044 106.078V116.25H135.09ZM56.845 103.333H110.327C109.18 101.181 105.999 99.2969 100.783 97.6823C95.5663 96.0677 89.8054 95.2604 83.5 95.2604C77.1945 95.2604 71.4336 96.0677 66.2172 97.6823C61.0009 99.2969 57.8768 101.181 56.845 103.333ZM28.4704 83.9583C24.6871 83.9583 21.4484 82.6936 18.7542 80.1641C16.06 77.6345 14.713 74.5938 14.713 71.0417C14.713 67.3819 16.06 64.3142 18.7542 61.8385C21.4484 59.3628 24.6871 58.125 28.4704 58.125C32.3683 58.125 35.6357 59.3628 38.2725 61.8385C40.9093 64.3142 42.2278 67.3819 42.2278 71.0417C42.2278 74.5938 40.9093 77.6345 38.2725 80.1641C35.6357 82.6936 32.3683 83.9583 28.4704 83.9583ZM138.53 83.9583C134.746 83.9583 131.508 82.6936 128.813 80.1641C126.119 77.6345 124.772 74.5938 124.772 71.0417C124.772 67.3819 126.119 64.3142 128.813 61.8385C131.508 59.3628 134.746 58.125 138.53 58.125C142.427 58.125 145.695 59.3628 148.332 61.8385C150.969 64.3142 152.287 67.3819 152.287 71.0417C152.287 74.5938 150.969 77.6345 148.332 80.1641C145.695 82.6936 142.427 83.9583 138.53 83.9583ZM83.5 77.5C77.7677 77.5 72.8953 75.6163 68.8827 71.849C64.8701 68.0816 62.8639 63.5069 62.8639 58.125C62.8639 52.6354 64.8701 48.0339 68.8827 44.3203C72.8953 40.6068 77.7677 38.75 83.5 38.75C89.3468 38.75 94.2479 40.6068 98.2032 44.3203C102.158 48.0339 104.136 52.6354 104.136 58.125C104.136 63.5069 102.158 68.0816 98.2032 71.849C94.2479 75.6163 89.3468 77.5 83.5 77.5ZM83.5 64.5833C85.4489 64.5833 87.0826 63.9644 88.401 62.7266C89.7194 61.4887 90.3787 59.9549 90.3787 58.125C90.3787 56.2951 89.7194 54.7613 88.401 53.5234C87.0826 52.2856 85.4489 51.6667 83.5 51.6667C81.551 51.6667 79.9173 52.2856 78.5989 53.5234C77.2805 54.7613 76.6213 56.2951 76.6213 58.125C76.6213 59.9549 77.2805 61.4887 78.5989 62.7266C79.9173 63.9644 81.551 64.5833 83.5 64.5833Z" fill="black"/>
    </g>
    <defs>
      <clipPath id="clip0_24_35_notes">
        <rect width="165.089" height="155" fill="white" transform="translate(0.955566)"/>
      </clipPath>
    </defs>
  </symbol>

  <!-- Library Icon -->
  <symbol id="icon-library" viewBox="0 0 148 126">
    <path d="M73.8812 105C69.0001 101.675 63.7123 99.0937 58.0177 97.2562C52.3231 95.4187 46.4251 94.5 40.3237 94.5C36.0528 94.5 31.8581 94.9812 27.7397 95.9437C23.6213 96.9062 19.6808 98.2625 15.9183 100.012C13.7829 100.975 11.7236 100.931 9.74071 99.8812C7.75777 98.8312 6.7663 97.3 6.7663 95.2875V32.025C6.7663 31.0625 7.04594 30.1437 7.60523 29.2687C8.16452 28.3937 9.00346 27.7375 10.122 27.3C14.7997 25.2 19.6808 23.625 24.7653 22.575C29.8497 21.525 35.0359 21 40.3237 21C46.2217 21 51.9926 21.6562 57.6363 22.9688C63.2801 24.2812 68.695 26.25 73.8812 28.875V92.4C79.0673 89.6 84.5077 87.5 90.2023 86.1C95.8969 84.7 101.642 84 107.439 84C111.099 84 114.684 84.2625 118.192 84.7875C121.701 85.3125 125.234 86.1 128.793 87.15V24.15C130.319 24.5875 131.819 25.0469 133.293 25.5281C134.768 26.0094 136.217 26.6 137.64 27.3C138.759 27.7375 139.598 28.3937 140.157 29.2687C140.716 30.1437 140.996 31.0625 140.996 32.025V95.2875C140.996 97.3 140.005 98.8312 138.022 99.8812C136.039 100.931 133.979 100.975 131.844 100.012C128.082 98.2625 124.141 96.9062 120.023 95.9437C115.904 94.9812 111.71 94.5 107.439 94.5C101.337 94.5 95.4393 95.4187 89.7447 97.2562C84.0501 99.0937 78.7623 101.675 73.8812 105ZM86.0839 78.75V28.875L116.591 2.625V55.125L86.0839 78.75ZM61.6785 87.2812V35.3062C58.3227 34.0812 54.8399 33.1406 51.2299 32.4844C47.6199 31.8281 43.9845 31.5 40.3237 31.5C36.5612 31.5 32.9004 31.8062 29.3413 32.4187C25.7822 33.0312 22.3247 33.95 18.969 35.175V87.2812C22.5281 86.1437 26.0618 85.3125 29.5701 84.7875C33.0784 84.2625 36.6629 84 40.3237 84C43.9845 84 47.5691 84.2625 51.0774 84.7875C54.5856 85.3125 58.1193 86.1437 61.6785 87.2812Z" fill="black"/>
  </symbol>

  <!-- Chat IA Icon -->
  <symbol id="icon-chat-ia" viewBox="0 0 191 156">
    <path fill-rule="evenodd" clip-rule="evenodd" d="M153.802 37.5552C159.167 44.113 159.167 53.242 159.167 71.5C159.167 89.7579 159.167 98.8871 153.802 105.445C151.479 108.284 148.495 110.721 145.019 112.618C138.005 116.446 128.588 116.93 111.417 116.991V117L102.618 131.372C99.6853 136.163 91.3147 136.163 88.3821 131.372L79.5833 117V116.991C62.4116 116.93 52.9951 116.446 45.981 112.618C42.5051 110.721 39.5208 108.284 37.1982 105.445C31.8333 98.8871 31.8333 89.7579 31.8333 71.5C31.8333 53.242 31.8333 44.113 37.1982 37.5552C39.5208 34.7162 42.5051 32.2787 45.981 30.3818C54.0101 26 65.1874 26 87.5417 26H103.458C125.812 26 136.99 26 145.019 30.3818C148.495 32.2787 151.479 34.7162 153.802 37.5552Z" fill="black"/>
    <path d="M67.6458 61.75H123.354" stroke="#DDF2D7" stroke-width="10" stroke-linecap="round" stroke-linejoin="round"/>
    <path d="M67.6458 81.25H107.437" stroke="#DDF2D7" stroke-width="10" stroke-linecap="round" stroke-linejoin="round"/>
  </symbol>

  <!-- Dinner Icon -->
  <symbol id="icon-dinner" viewBox="0 0 135 135">
    <path d="M24.6094 118.125L16.7344 110.25L74.3906 52.5938C72.7031 48.6562 72.4688 44.2031 73.6875 39.2344C74.9062 34.2656 77.5781 29.8125 81.7031 25.875C86.6719 20.9062 92.2031 18 98.2969 17.1562C104.391 16.3125 109.359 17.8125 113.203 21.6562C117.047 25.5 118.547 30.4688 117.703 36.5625C116.859 42.6562 113.953 48.1875 108.984 53.1562C105.047 57.2812 100.594 59.9531 95.625 61.1719C90.6562 62.3906 86.2031 62.1562 82.2656 60.4688L75.2344 67.5L117.984 110.25L110.109 118.125L67.3594 75.6562L24.6094 118.125ZM41.2031 70.0312L24.3281 53.1562C19.2656 48.0938 16.7344 42.0469 16.7344 35.0156C16.7344 27.9844 19.2656 21.9375 24.3281 16.875L59.2031 52.0312L41.2031 70.0312Z" fill="black"/>
  </symbol>

  <!-- Votes Icon -->
  <symbol id="icon-votes" viewBox="0 0 144 157">
    <path d="M30 143.917C26.7 143.917 23.875 142.635 21.525 140.073C19.175 137.511 18 134.431 18 130.833V101.069L34.5 80.626L43.05 89.9478L31.05 104.667H112.95L101.25 90.2749L109.8 80.953L126 101.069V130.833C126 134.431 124.825 137.511 122.475 140.073C120.125 142.635 117.3 143.917 114 143.917H30ZM30 130.833H114V117.75H30V130.833ZM63.75 94.0364L42.6 70.977C40.3 68.4694 39.175 65.3893 39.225 61.7369C39.275 58.0845 40.45 55.0045 42.75 52.4968L72.15 20.4427C74.45 17.935 77.3 16.6267 80.7 16.5177C84.1 16.4087 86.95 17.608 89.25 20.1156L110.4 43.1749C112.7 45.6826 113.9 48.7354 114 52.3333C114.1 55.9312 113 58.984 110.7 61.4916L80.7 94.1999C78.4 96.7075 75.575 97.9341 72.225 97.8796C68.875 97.8251 66.05 96.544 63.75 94.0364ZM102 52.4968L80.85 29.4375L51.15 61.8187L72.3 84.878L102 52.4968Z" fill="black"/>
  </symbol>

  <!-- Calendar Icon -->
  <symbol id="icon-calendar" viewBox="0 0 192 177">
    <path fill-rule="evenodd" clip-rule="evenodd" d="M56 32.6893C56 31.5417 56 30.9678 55.5928 30.6374C55.1855 30.3071 54.5795 30.3787 53.3675 30.522C44.3972 31.5819 38.1445 33.7412 33.3726 38.1403C24 46.7807 24 60.6871 24 88.5C24 116.313 24 130.22 33.3726 138.859C42.7452 147.5 57.8301 147.5 88 147.5H104C134.17 147.5 149.255 147.5 158.627 138.859C168 130.22 168 116.313 168 88.5C168 60.6871 168 46.7807 158.627 38.1403C153.855 33.7412 147.603 31.5819 138.633 30.522C137.421 30.3787 136.814 30.3071 136.407 30.6375C136 30.9678 136 31.5417 136 32.6893V47.9375C136 54.0472 130.627 59 124 59C117.373 59 112 54.0472 112 47.9375V31.7129C112 30.6725 112 30.1522 111.649 29.8283C111.298 29.5044 110.734 29.5037 109.607 29.5023C107.798 29.5 105.93 29.5 104 29.5H88C86.0704 29.5 84.2016 29.5 82.3928 29.5023C81.2656 29.5037 80.7016 29.5044 80.3512 29.8283C80 30.1522 80 30.6725 80 31.7129V47.9375C80 54.0472 74.6274 59 68.0001 59C61.3726 59 56 54.0472 56 47.9375V32.6893Z" fill="#7E869E" fill-opacity="0.25"/>
    <path d="M68 18.4375V47.9375" stroke="#222222" stroke-linecap="round"/>
    <path d="M124 18.4375V47.9375" stroke="#222222" stroke-linecap="round"/>
    <path d="M60 81.125C62.2091 81.125 64 79.4741 64 77.4375C64 75.4009 62.2091 73.75 60 73.75C57.7909 73.75 56 75.4009 56 77.4375C56 79.4741 57.7909 81.125 60 81.125Z" fill="#222222"/>
    <path d="M84 81.125C86.2091 81.125 88 79.4741 88 77.4375C88 75.4009 86.2091 73.75 84 73.75C81.7909 73.75 80 75.4009 80 77.4375C80 79.4741 81.7909 81.125 84 81.125Z" fill="#222222"/>
    <path d="M108 81.125C110.209 81.125 112 79.4741 112 77.4375C112 75.4009 110.209 73.75 108 73.75C105.791 73.75 104 75.4009 104 77.4375C104 79.4741 105.791 81.125 108 81.125Z" fill="#222222"/>
    <path d="M132 81.125C134.209 81.125 136 79.4741 136 77.4375C136 75.4009 134.209 73.75 132 73.75C129.791 73.75 128 75.4009 128 77.4375C128 79.4741 129.791 81.125 132 81.125Z" fill="#222222"/>
    <path d="M60 103.25C62.2091 103.25 64 101.599 64 99.5625C64 97.5259 62.2091 95.875 60 95.875C57.7909 95.875 56 97.5259 56 99.5625C56 101.599 57.7909 103.25 60 103.25Z" fill="#222222"/>
    <path d="M84 103.25C86.2091 103.25 88 101.599 88 99.5625C88 97.5259 86.2091 95.875 84 95.875C81.7909 95.875 80 97.5259 80 99.5625C80 101.599 81.7909 103.25 84 103.25Z" fill="#222222"/>
    <path d="M108 103.25C110.209 103.25 112 101.599 112 99.5625C112 97.5259 110.209 95.875 108 95.875C105.791 95.875 104 97.5259 104 99.5625C104 101.599 105.791 103.25 108 103.25Z" fill="#222222"/>
    <path d="M132 103.25C134.209 103.25 136 101.599 136 99.5625C136 97.5259 134.209 95.875 132 95.875C129.791 95.875 128 97.5259 128 99.5625C128 101.599 129.791 103.25 132 103.25Z" fill="#222222"/>
    <path d="M60 125.375C62.2091 125.375 64 123.724 64 121.688C64 119.651 62.2091 118 60 118C57.7909 118 56 119.651 56 121.688C56 123.724 57.7909 125.375 60 125.375Z" fill="#222222"/>
    <path d="M84 125.375C86.2091 125.375 88 123.724 88 121.688C88 119.651 86.2091 118 84 118C81.7909 118 80 119.651 80 121.688C80 123.724 81.7909 125.375 84 125.375Z" fill="#222222"/>
    <path d="M108 125.375C110.209 125.375 112 123.724 112 121.688C112 119.651 110.209 118 108 118C105.791 118 104 119.651 104 121.688C104 123.724 105.791 125.375 108 125.375Z" fill="#222222"/>
    <path d="M132 125.375C134.209 125.375 136 123.724 136 121.688C136 119.651 134.209 118 132 118C129.791 118 128 119.651 128 121.688C128 123.724 129.791 125.375 132 125.375Z" fill="#222222"/>
  </symbol>
</svg>